<?xml version="1.0" encoding="utf-8"?>
<!-- Generator: Adobe Illustrator 24.2.1, SVG Export Plug-In . SVG Version: 6.00 Build 0)  -->
<svg version="1.1" id="Layer_1" xmlns="http://www.w3.org/2000/svg" xmlns:xlink="http://www.w3.org/1999/xlink" x="0px" y="0px"
	 viewBox="0 0 24 24" style="enable-background:new 0 0 24 24;" xml:space="preserve">
<style type="text/css">
	.st0{fill:#FFFFFF;}
</style>
<path class="st0" d="M12,1.5c5.8,0,10.5,4.7,10.5,10.5S17.8,22.5,12,22.5S1.5,17.8,1.5,12C1.5,6.2,6.2,1.5,12,1.5 M12,0
	C5.4,0,0,5.4,0,12s5.4,12,12,12s12-5.4,12-12S18.6,0,12,0z"/>
<path class="st0" d="M9,7.3L9,7.3 M9.7,6H8.3C8,6,7.7,6.3,7.7,6.7v10.7C7.7,17.7,8,18,8.3,18h1.3c0.4,0,0.7-0.3,0.7-0.7V6.7
	C10.3,6.3,10,6,9.7,6z"/>
<path class="st0" d="M15,7.3L15,7.3 M15.7,6h-1.3c-0.4,0-0.7,0.3-0.7,0.7v10.7c0,0.4,0.3,0.7,0.7,0.7h1.3c0.4,0,0.7-0.3,0.7-0.7V6.7
	C16.3,6.3,16,6,15.7,6z"/>
</svg>
