<?xml version="1.0" encoding="utf-8"?>
<!-- Generator: Adobe Illustrator 24.2.1, SVG Export Plug-In . SVG Version: 6.00 Build 0)  -->
<svg version="1.1" id="Layer_1" xmlns="http://www.w3.org/2000/svg" xmlns:xlink="http://www.w3.org/1999/xlink" x="0px" y="0px"
	 viewBox="0 0 24 24" style="enable-background:new 0 0 24 24;" xml:space="preserve">
<style type="text/css">
	.st0{fill:#FFFFFF;}
</style>
<polygon class="st0" points="9.5,8.7 15.3,12 9.5,15.3 "/>
<path class="st0" d="M11.1,11.3l0.6,0.3l0.6,0.3l-0.6,0.3l-0.6,0.3V11.3 M8.6,6.5C8.3,6.5,8,6.7,8,7.1v9.8c0,0.3,0.3,0.6,0.6,0.6
	c0,0,0,0,0,0c0.1,0,0.2,0,0.3-0.1l4.3-2.5l4.3-2.5c0.3-0.2,0.4-0.5,0.2-0.8c-0.1-0.1-0.1-0.2-0.2-0.2L13.2,9L8.9,6.5
	C8.8,6.5,8.7,6.5,8.6,6.5L8.6,6.5z"/>
<path class="st0" d="M12,1.5c5.8,0,10.5,4.7,10.5,10.5S17.8,22.5,12,22.5S1.5,17.8,1.5,12C1.5,6.2,6.2,1.5,12,1.5 M12,0
	C5.4,0,0,5.4,0,12s5.4,12,12,12s12-5.4,12-12S18.6,0,12,0z"/>
</svg>
